<svg width="15" height="13" viewBox="0 0 15 13" fill="none" xmlns="http://www.w3.org/2000/svg">
<path d="M14.9688 6.37354C14.9688 6.93604 14.5312 7.37354 14 7.37354H4.40625L7.6875 10.686C8.09375 11.061 8.09375 11.7173 7.6875 12.0923C7.5 12.2798 7.25 12.3735 7 12.3735C6.71875 12.3735 6.46875 12.2798 6.28125 12.0923L1.28125 7.09229C0.875 6.71729 0.875 6.06104 1.28125 5.68604L6.28125 0.686035C6.65625 0.279785 7.3125 0.279785 7.6875 0.686035C8.09375 1.06104 8.09375 1.71729 7.6875 2.09229L4.40625 5.37354H14C14.5312 5.37354 14.9688 5.84229 14.9688 6.37354Z" fill="#757575"/>
</svg>
