<svg width="33" height="28" viewBox="0 0 33 28" fill="none" xmlns="http://www.w3.org/2000/svg">
<path d="M32.4297 14.5C32.4297 15.7656 31.4453 16.75 30.25 16.75H8.66406L16.0469 24.2031C16.9609 25.0469 16.9609 26.5234 16.0469 27.3672C15.625 27.7891 15.0625 28 14.5 28C13.8672 28 13.3047 27.7891 12.8828 27.3672L1.63281 16.1172C0.71875 15.2734 0.71875 13.7969 1.63281 12.9531L12.8828 1.70312C13.7266 0.789062 15.2031 0.789062 16.0469 1.70312C16.9609 2.54688 16.9609 4.02344 16.0469 4.86719L8.66406 12.25H30.25C31.4453 12.25 32.4297 13.3047 32.4297 14.5Z" fill="white"/>
</svg>
