<svg width="241" height="75" viewBox="0 0 241 75" fill="none" xmlns="http://www.w3.org/2000/svg">
<path d="M22.9665 56.5124C18.6484 56.5124 14.8162 55.6488 11.4697 53.9216C8.17718 52.1404 5.58635 49.6575 3.69721 46.4729C1.86204 43.2884 0.944458 39.672 0.944458 35.6239C0.944458 31.7376 1.91602 28.2022 3.85914 25.0177C5.80226 21.8331 8.44705 19.3232 11.7935 17.4881C15.14 15.6529 18.8643 14.7353 22.9665 14.7353C28.2021 14.7353 32.3312 15.8148 35.3539 17.9739L33.8156 28.742C30.739 27.8244 28.2021 27.3656 26.205 27.3656C23.6142 27.3656 21.5631 28.1212 20.0518 29.6326C18.5405 31.0899 17.7848 33.087 17.7848 35.6239C17.7848 38.1607 18.5405 40.1848 20.0518 41.6961C21.5631 43.2074 23.5602 43.9631 26.0431 43.9631C28.2021 43.9631 30.7389 43.5043 33.6536 42.5867L35.1919 53.9216C33.3568 54.8391 31.4946 55.4868 29.6055 55.8647C27.7163 56.2965 25.5033 56.5124 22.9665 56.5124Z" fill="#CB4036"/>
<path d="M61.9762 56.5124C57.4423 56.5124 53.3941 55.6218 49.8317 53.8406C46.3233 52.0594 43.5706 49.6035 41.5735 46.4729C39.6304 43.2884 38.6588 39.645 38.6588 35.5429C38.6588 31.4407 39.6573 27.8244 41.6544 24.6938C43.6515 21.5093 46.4043 19.0534 49.9127 17.3261C53.4751 15.5989 57.5232 14.7353 62.0572 14.7353C66.6451 14.7353 70.6933 15.6259 74.2017 17.4071C77.7641 19.1343 80.5168 21.5632 82.46 24.6938C84.4031 27.8244 85.3746 31.4407 85.3746 35.5429C85.3746 39.699 84.3761 43.3693 82.379 46.5539C80.4359 49.6845 77.6831 52.1404 74.1207 53.9216C70.6123 55.6488 66.5641 56.5124 61.9762 56.5124ZM62.1382 44.3679C64.3512 44.3679 66.1593 43.5583 67.5627 41.939C69.02 40.2657 69.7487 38.1337 69.7487 35.5429C69.7487 32.9521 69.02 30.847 67.5627 29.2278C66.1593 27.5545 64.3512 26.7179 62.1382 26.7179C59.9252 26.7179 58.09 27.5545 56.6326 29.2278C55.2293 30.847 54.5276 32.9521 54.5276 35.5429C54.5276 38.1337 55.2293 40.2657 56.6326 41.939C58.09 43.5583 59.9252 44.3679 62.1382 44.3679Z" fill="#CB4036"/>
<path d="M112.736 56.5124C108.202 56.5124 104.154 55.6218 100.592 53.8406C97.0835 52.0594 94.3308 49.6035 92.3337 46.4729C90.3906 43.2884 89.419 39.645 89.419 35.5429C89.419 31.4407 90.4175 27.8244 92.4146 24.6938C94.4117 21.5093 97.1645 19.0534 100.673 17.3261C104.235 15.5989 108.283 14.7353 112.817 14.7353C117.405 14.7353 121.453 15.6259 124.962 17.4071C128.524 19.1343 131.277 21.5632 133.22 24.6938C135.163 27.8244 136.135 31.4407 136.135 35.5429C136.135 39.699 135.136 43.3693 133.139 46.5539C131.196 49.6845 128.443 52.1404 124.881 53.9216C121.373 55.6488 117.324 56.5124 112.736 56.5124ZM112.898 44.3679C115.111 44.3679 116.92 43.5583 118.323 41.939C119.78 40.2657 120.509 38.1337 120.509 35.5429C120.509 32.9521 119.78 30.847 118.323 29.2278C116.92 27.5545 115.111 26.7179 112.898 26.7179C110.685 26.7179 108.85 27.5545 107.393 29.2278C105.989 30.847 105.288 32.9521 105.288 35.5429C105.288 38.1337 105.989 40.2657 107.393 41.939C108.85 43.5583 110.685 44.3679 112.898 44.3679Z" fill="#CB4036"/>
<path d="M182.118 56.5124C178.502 56.5124 175.587 56.0536 173.374 55.136C171.215 54.1644 169.434 52.5722 168.031 50.3592C166.627 48.1462 165.386 44.9886 164.306 40.8865L159.529 44.6917V55.8647H142.365L142.446 2.50986L159.61 0L159.529 27.6894L180.337 10.6872L189.648 23.3984L176.613 32.4663C177.26 36.5684 178.178 39.4291 179.365 41.0484C180.607 42.6677 182.415 43.4773 184.79 43.4773C185.762 43.4773 186.922 43.3154 188.271 42.9915L186.652 56.2695C185.033 56.4314 183.522 56.5124 182.118 56.5124Z" fill="#CB4036"/>
<path d="M215.686 74.4053C212.717 74.4053 7.00873 74.1084 4.30995 73.5147L5.60536 61.5321C7.7104 61.856 212.528 62.0179 214.309 62.0179C217.494 62.0179 219.923 61.0463 221.596 59.1032C223.269 57.2141 224.133 53.6247 224.187 48.3351C221.38 53.7326 216.873 56.4314 210.666 56.4314C205.43 56.4314 201.328 54.5962 198.36 50.9259C195.445 47.2016 193.988 42.0739 193.988 35.5429V15.3021H210.99V38.0527C210.99 39.8879 211.503 41.4262 212.528 42.6677C213.554 43.8551 214.957 44.4489 216.738 44.4489C218.573 44.4489 220.058 43.6662 221.191 42.1009C222.379 40.5356 222.972 38.4846 222.972 35.9477V15.3021H240.056V45.5823C240.056 54.9741 237.951 62.1258 233.74 67.0376C229.53 71.9494 223.512 74.4053 215.686 74.4053Z" fill="#CB4036"/>
</svg>
