<svg width="166" height="52" viewBox="0 0 166 52" fill="none" xmlns="http://www.w3.org/2000/svg">
<path d="M15.8965 39.3253C12.9166 39.3253 10.2721 38.7293 7.96273 37.5374C5.69063 36.3082 3.90275 34.5949 2.59909 32.3973C1.33267 30.1997 0.699463 27.7041 0.699463 24.9105C0.699463 22.2287 1.36992 19.789 2.71083 17.5914C4.05174 15.3938 5.87686 13.6618 8.18621 12.3953C10.4956 11.1289 13.0656 10.4957 15.8965 10.4957C19.5095 10.4957 22.3589 11.2407 24.4448 12.7306L23.3832 20.1614C21.2601 19.5282 19.5095 19.2116 18.1313 19.2116C16.3434 19.2116 14.928 19.7331 13.8851 20.776C12.8422 21.7817 12.3207 23.1599 12.3207 24.9105C12.3207 26.6611 12.8422 28.0579 13.8851 29.1009C14.928 30.1438 16.3062 30.6653 18.0196 30.6653C19.5095 30.6653 21.2601 30.3486 23.2715 29.7154L24.333 37.5374C23.0666 38.1706 21.7816 38.6176 20.4779 38.8783C19.1742 39.1763 17.6471 39.3253 15.8965 39.3253Z" fill="white"/>
<path d="M42.8164 39.3253C39.6876 39.3253 36.894 38.7107 34.4357 37.4815C32.0146 36.2524 30.115 34.5576 28.7368 32.3973C27.3959 30.1997 26.7254 27.6854 26.7254 24.8546C26.7254 22.0238 27.4145 19.5282 28.7927 17.3679C30.1708 15.1703 32.0704 13.4755 34.4915 12.2836C36.9499 11.0917 39.7434 10.4957 42.8722 10.4957C46.0383 10.4957 48.8318 11.1103 51.2529 12.3395C53.7113 13.5314 55.6109 15.2075 56.9518 17.3679C58.2927 19.5282 58.9632 22.0238 58.9632 24.8546C58.9632 27.7227 58.2741 30.2555 56.8959 32.4531C55.555 34.6135 53.6554 36.3082 51.1971 37.5374C48.776 38.7293 45.9824 39.3253 42.8164 39.3253ZM42.9281 30.9446C44.4552 30.9446 45.703 30.3859 46.6715 29.2685C47.6772 28.1138 48.18 26.6425 48.18 24.8546C48.18 23.0668 47.6772 21.6141 46.6715 20.4967C45.703 19.342 44.4552 18.7647 42.9281 18.7647C41.401 18.7647 40.1345 19.342 39.1289 20.4967C38.1604 21.6141 37.6762 23.0668 37.6762 24.8546C37.6762 26.6425 38.1604 28.1138 39.1289 29.2685C40.1345 30.3859 41.401 30.9446 42.9281 30.9446Z" fill="white"/>
<path d="M77.845 39.3253C74.7162 39.3253 71.9227 38.7107 69.4643 37.4815C67.0433 36.2524 65.1436 34.5576 63.7655 32.3973C62.4246 30.1997 61.7541 27.6854 61.7541 24.8546C61.7541 22.0238 62.4432 19.5282 63.8213 17.3679C65.1995 15.1703 67.0991 13.4755 69.5202 12.2836C71.9785 11.0917 74.7721 10.4957 77.9009 10.4957C81.0669 10.4957 83.8605 11.1103 86.2816 12.3395C88.7399 13.5314 90.6395 15.2075 91.9805 17.3679C93.3214 19.5282 93.9918 22.0238 93.9918 24.8546C93.9918 27.7227 93.3027 30.2555 91.9246 32.4531C90.5837 34.6135 88.6841 36.3082 86.2257 37.5374C83.8046 38.7293 81.0111 39.3253 77.845 39.3253ZM77.9568 30.9446C79.4839 30.9446 80.7317 30.3859 81.7001 29.2685C82.7058 28.1138 83.2087 26.6425 83.2087 24.8546C83.2087 23.0668 82.7058 21.6141 81.7001 20.4967C80.7317 19.342 79.4839 18.7647 77.9568 18.7647C76.4296 18.7647 75.1632 19.342 74.1575 20.4967C73.1891 21.6141 72.7049 23.0668 72.7049 24.8546C72.7049 26.6425 73.1891 28.1138 74.1575 29.2685C75.1632 30.3859 76.4296 30.9446 77.9568 30.9446Z" fill="white"/>
<path d="M125.724 39.3253C123.229 39.3253 121.217 39.0087 119.69 38.3755C118.2 37.705 116.971 36.6062 116.002 35.0791C115.034 33.5519 114.177 31.373 113.432 28.5421L110.136 31.1681V38.8783H98.2913L98.3472 2.05916L110.192 0.327148L110.136 19.4351L124.495 7.70216L130.92 16.4739L121.925 22.7315C122.372 25.5623 123.005 27.5365 123.824 28.6539C124.681 29.7713 125.929 30.33 127.568 30.33C128.238 30.33 129.039 30.2183 129.97 29.9948L128.853 39.1577C127.735 39.2694 126.693 39.3253 125.724 39.3253Z" fill="white"/>
<path d="M148.888 51.6729C146.84 51.6729 4.8843 51.468 3.02193 51.0583L3.91586 42.7893C5.36852 43.0128 146.709 43.1245 147.939 43.1245C150.136 43.1245 151.812 42.4541 152.967 41.1132C154.122 39.8095 154.718 37.3326 154.755 33.6823C152.818 37.407 149.708 39.2694 145.424 39.2694C141.811 39.2694 138.981 38.003 136.932 35.4702C134.921 32.9001 133.915 29.3616 133.915 24.8546V10.8868H145.648V26.5866C145.648 27.8531 146.002 28.9146 146.709 29.7713C147.417 30.5908 148.386 31.0005 149.615 31.0005C150.881 31.0005 151.905 30.4604 152.688 29.3802C153.507 28.3 153.917 26.8846 153.917 25.134V10.8868H165.706V31.7827C165.706 38.2637 164.253 43.199 161.348 46.5886C158.442 49.9781 154.289 51.6729 148.888 51.6729Z" fill="white"/>
</svg>
