<svg width="106" height="38" viewBox="0 0 106 38" fill="none" xmlns="http://www.w3.org/2000/svg">
<rect x="0.5" y="0.5" width="105" height="37" rx="18.5" stroke="#FF1100"/>
<path d="M12.0055 25V13.8H16.3895C17.1895 13.8 17.9095 13.9333 18.5495 14.2C19.2002 14.4667 19.7548 14.8507 20.2135 15.352C20.6722 15.8533 21.0242 16.4453 21.2695 17.128C21.5148 17.8107 21.6375 18.568 21.6375 19.4C21.6375 20.232 21.5148 20.9947 21.2695 21.688C21.0242 22.3707 20.6722 22.9627 20.2135 23.464C19.7655 23.9547 19.2162 24.3333 18.5655 24.6C17.9148 24.8667 17.1895 25 16.3895 25H12.0055ZM13.7335 23.512L13.6855 23.336H16.3095C16.8748 23.336 17.3762 23.2453 17.8135 23.064C18.2615 22.8827 18.6348 22.6267 18.9335 22.296C19.2428 21.9547 19.4775 21.5387 19.6375 21.048C19.7975 20.5573 19.8775 20.008 19.8775 19.4C19.8775 18.792 19.7975 18.248 19.6375 17.768C19.4775 17.2773 19.2428 16.8613 18.9335 16.52C18.6242 16.1787 18.2508 15.9173 17.8135 15.736C17.3762 15.5547 16.8748 15.464 16.3095 15.464H13.6375L13.7335 15.32V23.512ZM27.4783 25.16C26.6143 25.16 25.8463 24.9787 25.1743 24.616C24.5129 24.2427 23.9903 23.736 23.6063 23.096C23.2329 22.456 23.0463 21.72 23.0463 20.888C23.0463 20.2267 23.1529 19.624 23.3663 19.08C23.5796 18.536 23.8729 18.0667 24.2463 17.672C24.6303 17.2667 25.0836 16.9573 25.6063 16.744C26.1396 16.52 26.7156 16.408 27.3343 16.408C27.8783 16.408 28.3849 16.5147 28.8543 16.728C29.3236 16.9307 29.7289 17.2133 30.0703 17.576C30.4223 17.9387 30.6889 18.3707 30.8703 18.872C31.0623 19.3627 31.1529 19.9013 31.1423 20.488L31.1263 21.192H24.2623L23.8943 19.88H29.7023L29.4623 20.152V19.768C29.4303 19.416 29.3129 19.1013 29.1103 18.824C28.9076 18.5467 28.6516 18.328 28.3423 18.168C28.0329 18.008 27.6969 17.928 27.3343 17.928C26.7583 17.928 26.2729 18.04 25.8783 18.264C25.4836 18.4773 25.1849 18.7973 24.9823 19.224C24.7796 19.64 24.6783 20.1573 24.6783 20.776C24.6783 21.3627 24.8009 21.8747 25.0463 22.312C25.2916 22.7387 25.6383 23.0693 26.0863 23.304C26.5343 23.5387 27.0516 23.656 27.6383 23.656C28.0543 23.656 28.4383 23.5867 28.7903 23.448C29.1529 23.3093 29.5423 23.0587 29.9583 22.696L30.7903 23.864C30.5343 24.12 30.2196 24.344 29.8463 24.536C29.4836 24.728 29.0943 24.8827 28.6783 25C28.2729 25.1067 27.8729 25.16 27.4783 25.16ZM32.9653 25V13.16H34.6133V25H32.9653ZM40.7126 25.16C39.8486 25.16 39.0806 24.9787 38.4086 24.616C37.7473 24.2427 37.2246 23.736 36.8406 23.096C36.4673 22.456 36.2806 21.72 36.2806 20.888C36.2806 20.2267 36.3873 19.624 36.6006 19.08C36.814 18.536 37.1073 18.0667 37.4806 17.672C37.8646 17.2667 38.318 16.9573 38.8406 16.744C39.374 16.52 39.95 16.408 40.5686 16.408C41.1126 16.408 41.6193 16.5147 42.0886 16.728C42.558 16.9307 42.9633 17.2133 43.3046 17.576C43.6566 17.9387 43.9233 18.3707 44.1046 18.872C44.2966 19.3627 44.3873 19.9013 44.3766 20.488L44.3606 21.192H37.4966L37.1286 19.88H42.9366L42.6966 20.152V19.768C42.6646 19.416 42.5473 19.1013 42.3446 18.824C42.142 18.5467 41.886 18.328 41.5766 18.168C41.2673 18.008 40.9313 17.928 40.5686 17.928C39.9926 17.928 39.5073 18.04 39.1126 18.264C38.718 18.4773 38.4193 18.7973 38.2166 19.224C38.014 19.64 37.9126 20.1573 37.9126 20.776C37.9126 21.3627 38.0353 21.8747 38.2806 22.312C38.526 22.7387 38.8726 23.0693 39.3206 23.304C39.7686 23.5387 40.286 23.656 40.8726 23.656C41.2886 23.656 41.6726 23.5867 42.0246 23.448C42.3873 23.3093 42.7766 23.0587 43.1926 22.696L44.0246 23.864C43.7686 24.12 43.454 24.344 43.0806 24.536C42.718 24.728 42.3286 24.8827 41.9126 25C41.5073 25.1067 41.1073 25.16 40.7126 25.16ZM47.2076 25V14.456H48.8556V25H47.2076ZM45.4636 18.2V16.6H50.8076V18.2H45.4636ZM56.1501 25.16C55.2861 25.16 54.5181 24.9787 53.8461 24.616C53.1848 24.2427 52.6621 23.736 52.2781 23.096C51.9048 22.456 51.7181 21.72 51.7181 20.888C51.7181 20.2267 51.8248 19.624 52.0381 19.08C52.2515 18.536 52.5448 18.0667 52.9181 17.672C53.3021 17.2667 53.7555 16.9573 54.2781 16.744C54.8115 16.52 55.3875 16.408 56.0061 16.408C56.5501 16.408 57.0568 16.5147 57.5261 16.728C57.9955 16.9307 58.4008 17.2133 58.7421 17.576C59.0941 17.9387 59.3608 18.3707 59.5421 18.872C59.7341 19.3627 59.8248 19.9013 59.8141 20.488L59.7981 21.192H52.9341L52.5661 19.88H58.3741L58.1341 20.152V19.768C58.1021 19.416 57.9848 19.1013 57.7821 18.824C57.5795 18.5467 57.3235 18.328 57.0141 18.168C56.7048 18.008 56.3688 17.928 56.0061 17.928C55.4301 17.928 54.9448 18.04 54.5501 18.264C54.1555 18.4773 53.8568 18.7973 53.6541 19.224C53.4515 19.64 53.3501 20.1573 53.3501 20.776C53.3501 21.3627 53.4728 21.8747 53.7181 22.312C53.9635 22.7387 54.3101 23.0693 54.7581 23.304C55.2061 23.5387 55.7235 23.656 56.3101 23.656C56.7261 23.656 57.1101 23.5867 57.4621 23.448C57.8248 23.3093 58.2141 23.0587 58.6301 22.696L59.4621 23.864C59.2061 24.12 58.8915 24.344 58.5181 24.536C58.1555 24.728 57.7661 24.8827 57.3501 25C56.9448 25.1067 56.5448 25.16 56.1501 25.16Z" fill="#FF1100"/>
<path d="M80.9688 11.5625C81.125 11.2188 81.4688 11 81.8438 11H85.625C86 11 86.3438 11.2188 86.5 11.5625L86.75 12H89.75C90.2812 12 90.75 12.4688 90.75 13C90.75 13.5625 90.2812 14 89.75 14H77.75C77.1875 14 76.75 13.5625 76.75 13C76.75 12.4688 77.1875 12 77.75 12H80.75L80.9688 11.5625ZM89.0625 25.5938C89.0312 26.4062 88.375 27 87.5625 27H79.9062C79.0938 27 78.4375 26.4062 78.4062 25.5938L77.7188 15H89.75L89.0625 25.5938Z" fill="#FF1100"/>
</svg>
