<svg width="106" height="38" viewBox="0 0 106 38" fill="none" xmlns="http://www.w3.org/2000/svg">
<rect x="0.5" y="0.5" width="105" height="37" rx="18.5" stroke="white"/>
<path d="M12.0055 25V13.8H19.0615V15.464H13.7335V23.336H19.0615V25H12.0055ZM12.7895 20.088V18.424H18.1815V20.088H12.7895ZM24.8435 25.16C24.0755 25.16 23.3875 24.9733 22.7795 24.6C22.1822 24.216 21.7075 23.6987 21.3555 23.048C21.0035 22.3867 20.8275 21.6347 20.8275 20.792C20.8275 19.9493 20.9982 19.2027 21.3395 18.552C21.6915 17.8907 22.1662 17.3733 22.7635 17C23.3608 16.616 24.0382 16.424 24.7955 16.424C25.2115 16.424 25.6115 16.4933 25.9955 16.632C26.3902 16.76 26.7422 16.9413 27.0515 17.176C27.3608 17.4 27.6008 17.6507 27.7715 17.928C27.9528 18.1947 28.0435 18.4667 28.0435 18.744L27.5635 18.776V13.16H29.2115V25H27.5635V23H27.8835C27.8835 23.256 27.7982 23.512 27.6275 23.768C27.4568 24.0133 27.2275 24.2427 26.9395 24.456C26.6622 24.6693 26.3368 24.84 25.9635 24.968C25.6008 25.096 25.2275 25.16 24.8435 25.16ZM25.0675 23.736C25.5688 23.736 26.0115 23.608 26.3955 23.352C26.7795 23.096 27.0782 22.7493 27.2915 22.312C27.5155 21.864 27.6275 21.3573 27.6275 20.792C27.6275 20.2267 27.5155 19.7253 27.2915 19.288C27.0782 18.84 26.7795 18.488 26.3955 18.232C26.0115 17.976 25.5688 17.848 25.0675 17.848C24.5662 17.848 24.1235 17.976 23.7395 18.232C23.3555 18.488 23.0515 18.84 22.8275 19.288C22.6142 19.7253 22.5075 20.2267 22.5075 20.792C22.5075 21.3573 22.6142 21.864 22.8275 22.312C23.0515 22.7493 23.3555 23.096 23.7395 23.352C24.1235 23.608 24.5662 23.736 25.0675 23.736ZM31.7521 25V16.6H33.4001V25H31.7521ZM32.5521 14.744C32.2001 14.744 31.9281 14.6533 31.7361 14.472C31.5441 14.2907 31.4481 14.0347 31.4481 13.704C31.4481 13.3947 31.5441 13.144 31.7361 12.952C31.9388 12.76 32.2108 12.664 32.5521 12.664C32.9041 12.664 33.1761 12.7547 33.3681 12.936C33.5601 13.1173 33.6561 13.3733 33.6561 13.704C33.6561 14.0133 33.5548 14.264 33.3521 14.456C33.1601 14.648 32.8935 14.744 32.5521 14.744ZM36.9733 25V14.456H38.6213V25H36.9733ZM35.2293 18.2V16.6H40.5733V18.2H35.2293Z" fill="white"/>
<path d="M87.0625 11.625C87.8438 10.8438 89.125 10.8438 89.9062 11.625L91.125 12.8438C91.9062 13.625 91.9062 14.9062 91.125 15.6875L89.625 17.1875L85.5625 13.125L87.0625 11.625ZM88.9062 17.9062L81.625 25.1875C81.3125 25.5 80.9062 25.75 80.4688 25.875L76.6875 26.9688C76.4375 27.0625 76.1562 27 75.9688 26.7812C75.75 26.5938 75.6875 26.3125 75.75 26.0625L76.875 22.2812C77 21.8438 77.25 21.4375 77.5625 21.125L84.8438 13.8438L88.9062 17.9062Z" fill="white"/>
</svg>
