<svg width="39" height="38" viewBox="0 0 39 38" fill="none" xmlns="http://www.w3.org/2000/svg">
<rect x="1" y="0.5" width="37" height="37" rx="18.5" stroke="#FF1100"/>
<path d="M16.7188 11.5625C16.875 11.2188 17.2188 11 17.5938 11H21.375C21.75 11 22.0938 11.2188 22.25 11.5625L22.5 12H25.5C26.0312 12 26.5 12.4688 26.5 13C26.5 13.5625 26.0312 14 25.5 14H13.5C12.9375 14 12.5 13.5625 12.5 13C12.5 12.4688 12.9375 12 13.5 12H16.5L16.7188 11.5625ZM24.8125 25.5938C24.7812 26.4062 24.125 27 23.3125 27H15.6562C14.8438 27 14.1875 26.4062 14.1562 25.5938L13.4688 15H25.5L24.8125 25.5938Z" fill="#FF1100"/>
</svg>
