<svg width="39" height="38" viewBox="0 0 39 38" fill="none" xmlns="http://www.w3.org/2000/svg">
<rect x="1" y="0.5" width="37" height="37" rx="18.5" stroke="white"/>
<path d="M22.8125 11.625C23.5938 10.8438 24.875 10.8438 25.6562 11.625L26.875 12.8438C27.6562 13.625 27.6562 14.9062 26.875 15.6875L25.375 17.1875L21.3125 13.125L22.8125 11.625ZM24.6562 17.9062L17.375 25.1875C17.0625 25.5 16.6562 25.75 16.2188 25.875L12.4375 26.9688C12.1875 27.0625 11.9062 27 11.7188 26.7812C11.5 26.5938 11.4375 26.3125 11.5 26.0625L12.625 22.2812C12.75 21.8438 13 21.4375 13.3125 21.125L20.5938 13.8438L24.6562 17.9062Z" fill="white"/>
</svg>
