<svg width="53" height="53" viewBox="0 0 53 53" fill="none" xmlns="http://www.w3.org/2000/svg">
<g filter="url(#filter0_d_455_577)">
<circle cx="26.5" cy="22.5" r="22.5" fill="#CB4036"/>
</g>
<path d="M33.7857 20.6786C34.4308 20.6786 35 21.2478 35 21.8929V23.1071C35 23.7902 34.4308 24.3214 33.7857 24.3214H28.3214V29.7857C28.3214 30.4688 27.7522 31 27.1071 31H25.8929C25.2098 31 24.6786 30.4688 24.6786 29.7857V24.3214H19.2143C18.5312 24.3214 18 23.7902 18 23.1071V21.8929C18 21.2478 18.5312 20.6786 19.2143 20.6786H24.6786V15.2143C24.6786 14.5692 25.2098 14 25.8929 14H27.1071C27.7522 14 28.3214 14.5692 28.3214 15.2143V20.6786H33.7857Z" fill="white"/>
<defs>
<filter id="filter0_d_455_577" x="0" y="0" width="53" height="53" filterUnits="userSpaceOnUse" color-interpolation-filters="sRGB">
<feFlood flood-opacity="0" result="BackgroundImageFix"/>
<feColorMatrix in="SourceAlpha" type="matrix" values="0 0 0 0 0 0 0 0 0 0 0 0 0 0 0 0 0 0 127 0" result="hardAlpha"/>
<feOffset dy="4"/>
<feGaussianBlur stdDeviation="2"/>
<feComposite in2="hardAlpha" operator="out"/>
<feColorMatrix type="matrix" values="0 0 0 0 0.5125 0 0 0 0 0.0523249 0 0 0 0 0.0192188 0 0 0 0.3 0"/>
<feBlend mode="normal" in2="BackgroundImageFix" result="effect1_dropShadow_455_577"/>
<feBlend mode="normal" in="SourceGraphic" in2="effect1_dropShadow_455_577" result="shape"/>
</filter>
</defs>
</svg>
