<svg width="53" height="53" viewBox="0 0 53 53" fill="none" xmlns="http://www.w3.org/2000/svg">
<g filter="url(#filter0_d_28_598)">
<circle cx="26.5" cy="22.5" r="22.5" fill="#CB4036"/>
</g>
<path d="M33.9535 22.1273C33.7084 22.3724 33.3817 22.4949 33.055 22.4949C32.6874 22.4949 32.3607 22.3724 32.1157 22.1273L27.8274 17.8391V30.3363C27.8274 31.0715 27.2148 31.6432 26.5205 31.6432C25.867 31.6432 25.2136 31.0715 25.2136 30.3363V17.8391L20.8845 22.1273C20.3944 22.6583 19.5367 22.6583 19.0466 22.1273C18.5157 21.6373 18.5157 20.7796 19.0466 20.2895L25.5811 13.755C26.0712 13.2241 26.9289 13.2241 27.419 13.755L33.9535 20.2895C34.4844 20.7796 34.4844 21.6373 33.9535 22.1273Z" fill="white"/>
<defs>
<filter id="filter0_d_28_598" x="0" y="0" width="53" height="53" filterUnits="userSpaceOnUse" color-interpolation-filters="sRGB">
<feFlood flood-opacity="0" result="BackgroundImageFix"/>
<feColorMatrix in="SourceAlpha" type="matrix" values="0 0 0 0 0 0 0 0 0 0 0 0 0 0 0 0 0 0 127 0" result="hardAlpha"/>
<feOffset dy="4"/>
<feGaussianBlur stdDeviation="2"/>
<feComposite in2="hardAlpha" operator="out"/>
<feColorMatrix type="matrix" values="0 0 0 0 0.5125 0 0 0 0 0.0523249 0 0 0 0 0.0192188 0 0 0 0.3 0"/>
<feBlend mode="normal" in2="BackgroundImageFix" result="effect1_dropShadow_28_598"/>
<feBlend mode="normal" in="SourceGraphic" in2="effect1_dropShadow_28_598" result="shape"/>
</filter>
</defs>
</svg>
