<svg width="24" height="24" viewBox="0 0 24 24" fill="none" xmlns="http://www.w3.org/2000/svg">
<path d="M23.5151 7.82812C23.7026 8.25 23.562 8.67188 23.2339 9L21.2183 10.8281C21.2651 11.2031 21.312 11.625 21.312 12C21.312 12.4219 21.2651 12.8438 21.2183 13.2188L23.2339 15.0469C23.562 15.375 23.7026 15.7969 23.5151 16.2188C23.3276 16.7812 23.0933 17.2969 22.812 17.8125L22.5776 18.1875C22.2495 18.7031 21.9214 19.2188 21.5464 19.6875C21.2651 20.0156 20.7964 20.1094 20.3745 19.9688L17.7964 19.1719C17.1401 19.6406 16.437 20.0156 15.7339 20.3438L15.1245 23.0156C15.0308 23.4375 14.7026 23.7656 14.2808 23.8594C13.6245 23.9531 12.9683 24 12.2651 24C11.6089 24 10.9526 23.9531 10.2964 23.8594C9.87451 23.7656 9.54639 23.4375 9.45264 23.0156L8.84326 20.3438C8.14014 20.0156 7.43701 19.6406 6.78076 19.1719L4.20264 19.9688C3.78076 20.1094 3.31201 20.0156 3.03076 19.6875C2.65576 19.2188 2.32764 18.7031 1.99951 18.1875L1.76514 17.8125C1.48389 17.2969 1.24951 16.7812 1.06201 16.2188C0.874512 15.7969 1.01514 15.375 1.34326 15.0469L3.35889 13.2188C3.31201 12.8438 3.31201 12.4219 3.31201 12C3.31201 11.625 3.31201 11.2031 3.35889 10.8281L1.34326 9C1.01514 8.67188 0.874512 8.25 1.06201 7.82812C1.24951 7.26562 1.48389 6.75 1.76514 6.23438L1.99951 5.85938C2.32764 5.34375 2.65576 4.82812 3.03076 4.35938C3.31201 4.03125 3.78076 3.9375 4.20264 4.07812L6.78076 4.875C7.43701 4.40625 8.14014 3.98438 8.84326 3.70312L9.45264 1.03125C9.54639 0.609375 9.87451 0.28125 10.2964 0.1875C10.9526 0.09375 11.6089 0 12.312 0C12.9683 0 13.6245 0.09375 14.2808 0.1875C14.7026 0.28125 15.0308 0.609375 15.1245 1.03125L15.7339 3.70312C16.437 3.98438 17.1401 4.40625 17.7964 4.875L20.3745 4.07812C20.7964 3.9375 21.2651 4.03125 21.5464 4.35938C21.9214 4.82812 22.2495 5.34375 22.5776 5.85938L22.812 6.23438C23.0933 6.75 23.3276 7.26562 23.5151 7.82812ZM12.312 15.75C14.3745 15.75 16.062 14.1094 16.062 12C16.062 9.9375 14.3745 8.25 12.312 8.25C10.2026 8.25 8.56201 9.9375 8.56201 12C8.56201 14.1094 10.2026 15.75 12.312 15.75Z" fill="white"/>
</svg>
