<svg width="15" height="13" viewBox="0 0 15 13" fill="none" xmlns="http://www.w3.org/2000/svg">
<path d="M4.375 10.625C4.83984 10.625 5.25 11.0352 5.25 11.5C5.25 11.9922 4.83984 12.375 4.375 12.375H2.625C1.14844 12.375 0 11.2266 0 9.75V2.75C0 1.30078 1.14844 0.125 2.625 0.125H4.375C4.83984 0.125 5.25 0.535156 5.25 1C5.25 1.49219 4.83984 1.875 4.375 1.875H2.625C2.13281 1.875 1.75 2.28516 1.75 2.75V9.75C1.75 10.2422 2.13281 10.625 2.625 10.625H4.375ZM13.7266 5.64844C14.082 5.97656 14.082 6.55078 13.7266 6.87891L10.2266 10.3789C9.89844 10.7344 9.32422 10.7344 8.99609 10.3789C8.64062 10.0508 8.64062 9.47656 8.99609 9.14844L10.9922 7.125H5.25C4.75781 7.125 4.375 6.74219 4.375 6.25C4.375 5.78516 4.75781 5.375 5.25 5.375H10.9922L8.99609 3.37891C8.64062 3.05078 8.64062 2.47656 8.99609 2.14844C9.32422 1.79297 9.89844 1.79297 10.2266 2.14844L13.7266 5.64844Z" fill="#1E1E1E"/>
</svg>
