<svg width="14" height="16" viewBox="0 0 14 16" fill="none" xmlns="http://www.w3.org/2000/svg">
<path d="M8.5 0C9.03125 0 9.5 0.46875 9.5 1C9.5 1.5625 9.03125 2 8.5 2H8V3.09375C9.15625 3.28125 10.2188 3.75 11.0938 4.46875L11.7812 3.8125C12.1562 3.40625 12.8125 3.40625 13.1875 3.8125C13.5938 4.1875 13.5938 4.84375 13.1875 5.21875L12.4375 5.96875C13.0938 7 13.5 8.21875 13.5 9.5C13.5 13.0938 10.5625 16 7 16C3.40625 16 0.5 13.0938 0.5 9.5C0.5 6.25 2.875 3.5625 6 3.09375V2H5.5C4.9375 2 4.5 1.5625 4.5 1C4.5 0.46875 4.9375 0 5.5 0H8.5ZM7.75 6C7.75 5.59375 7.40625 5.25 7 5.25C6.5625 5.25 6.25 5.59375 6.25 6V10C6.25 10.4375 6.5625 10.75 7 10.75C7.40625 10.75 7.75 10.4375 7.75 10V6Z" fill="#FFC327"/>
</svg>
