<svg width="15" height="16" viewBox="0 0 15 16" fill="none" xmlns="http://www.w3.org/2000/svg">
<path d="M7.90625 4.65625C8 5.0625 8 5.46875 7.9375 5.875C7.84375 6.25 7.65625 6.625 7.40625 6.96875C6.96875 7.46875 6.40625 7.8125 5.71875 7.96875V14.75C5.71875 15.0938 5.59375 15.4062 5.375 15.6562C5.125 15.875 4.8125 16 4.46875 16C4.15625 16 3.84375 15.875 3.59375 15.6562C3.375 15.4062 3.21875 15.0938 3.21875 14.75V7.96875C2.5625 7.84375 1.96875 7.46875 1.5625 6.96875C1.3125 6.65625 1.125 6.28125 1.03125 5.875C0.9375 5.46875 0.96875 5.0625 1.0625 4.65625L2 0.40625C2.03125 0.28125 2.09375 0.1875 2.1875 0.09375C2.3125 0.03125 2.40625 0 2.53125 0.03125C2.65625 0.03125 2.78125 0.09375 2.875 0.1875C2.9375 0.28125 3 0.40625 3 0.5V5H3.53125L4.0625 0.375C4.09375 0.28125 4.125 0.1875 4.21875 0.125C4.28125 0.0625 4.375 0.03125 4.46875 0.03125C4.59375 0.03125 4.6875 0.0625 4.75 0.125C4.84375 0.1875 4.875 0.28125 4.90625 0.375L5.4375 5H5.96875V0.5C5.96875 0.40625 6.03125 0.28125 6.09375 0.1875C6.1875 0.09375 6.3125 0.03125 6.4375 0.03125C6.5625 0 6.65625 0.03125 6.78125 0.09375C6.875 0.1875 6.9375 0.28125 6.96875 0.40625L7.90625 4.65625ZM15 14.75C15 15.0938 14.8438 15.4062 14.625 15.6562C14.375 15.875 14.0625 16 13.75 16C13.4062 16 13.0938 15.875 12.8438 15.6562C12.625 15.4062 12.5 15.0938 12.5 14.75V11H11.9688C11.6875 11 11.4375 10.9688 11.1875 10.875C10.9375 10.75 10.7188 10.625 10.5312 10.4375C10.3438 10.25 10.2188 10 10.0938 9.78125C10 9.53125 9.96875 9.25 9.96875 9V5.4375C10 4.28125 10.3438 3.15625 10.9688 2.21875C11.625 1.25 12.5312 0.53125 13.625 0.09375C13.75 0.03125 13.9375 0 14.0938 0.03125C14.25 0.03125 14.4062 0.09375 14.5312 0.1875C14.6875 0.28125 14.7812 0.40625 14.875 0.5625C14.9375 0.6875 14.9688 0.84375 15 1V14.75Z" fill="#FFC327"/>
</svg>
